<svg id="Layer_1" xmlns="http://www.w3.org/2000/svg" viewBox="0 0 32.4 43.8"><style>.st0{fill:#fff}.st1{fill:#ed713a}.st2{fill:#010101}</style><path class="st0" d="M2.6 21.6l-1.3 4.7 2.1 3.8 5.5 5.7 4.2 3.5 3.1-.7 3.1-.9 8.5-4.9 1.1-3.7.9-7.5v-1.7H7z"/><path class="st1" d="M25.8 8.6L17 17.4c-.4.4-1.1.4-1.6 0L6.6 8.6l-4 1.9v11c2.7 2.8 9.8 9.6 13.6 9.6s10.9-6.8 13.6-9.6v-11l-4-1.9z"/><path class="st2" d="M31.6.1c-.4-.2-.9-.1-1.3.3L16.2 14.5 2 .4C1.5-.1.8-.1.3.4c-.2.2-.3.5-.3.8v21c0 4.6 1.2 7.3 4.6 10.7l10.6 10.6c.6.6 1.5.6 2.1 0l10.6-10.6c3.4-3.4 4.6-6.1 4.6-10.7v-21c-.1-.5-.4-.9-.9-1.1zm-1.8 22.1c0 3.9-.9 5.9-3.8 8.8l-6.7 6.7-.7-.7-.9-.9c-.8-.8-2.2-.8-3 0l-.9.9-.7.7L6.4 31c-2.9-2.9-3.8-5-3.8-8.9V10.5l4-2 8.8 8.8c.4.4 1.1.4 1.6 0l8.8-8.8 4 1.9v11.8zM8 22.7l-5.4-1.1c1.8 1.8 5.4 5.3 8.7 7.5V26c0-2-.3-2.6-3.3-3.3zm13 3.2v3.2c3.4-2.2 7-5.7 8.7-7.5l-5.4 1.1c-3 .7-3.3 1.3-3.3 3.2z"/></svg>